<svg width="35" height="36" viewBox="0 0 35 36" fill="none" xmlns="http://www.w3.org/2000/svg">
<path d="M11.0163 16.4276L11.765 13.4211C11.8634 13.0246 12.0912 12.6723 12.4124 12.4199C12.7337 12.1676 13.1299 12.0296 13.5384 12.0279H15.0064M18.2185 23.0279V22.5434C18.2255 21.472 18.5742 20.4308 19.2139 19.5713C19.8536 18.7119 20.751 18.079 21.7753 17.7648C22.7996 17.4507 23.8975 17.4717 24.9091 17.8247C25.9207 18.1778 26.7932 18.8445 27.3996 19.7278L27.6785 20.1682M8.50745 16.4276H15.2839L14.5646 23.0294H9.22825L8.50745 16.4276ZM19.9346 12.1453C19.9254 12.5845 20.0039 13.0211 20.1655 13.4295C20.3272 13.8379 20.5687 14.2099 20.876 14.5238C21.1833 14.8376 21.5502 15.087 21.9551 15.2572C22.36 15.4274 22.7948 15.5151 23.2341 15.5151C23.6733 15.5151 24.1081 15.4274 24.513 15.2572C24.9179 15.087 25.2848 14.8376 25.5921 14.5238C25.8994 14.2099 26.1409 13.8379 26.3026 13.4295C26.4642 13.0211 26.5427 12.5845 26.5335 12.1453C26.5153 11.2823 26.1597 10.4608 25.5429 9.85691C24.9261 9.253 24.0973 8.91479 23.2341 8.91479C22.3709 8.91479 21.542 9.253 20.9252 9.85691C20.3085 10.4608 19.9529 11.2823 19.9346 12.1453Z" stroke="#6590CC" stroke-width="2" stroke-linecap="round" stroke-linejoin="round"/>
<path d="M3.93167 19.7292H2.46657C2.07748 19.7288 1.70445 19.574 1.42946 19.2987C1.15447 19.0235 1 18.6503 1 18.2612V2.46657C1.00039 2.07748 1.15523 1.70445 1.4305 1.42946C1.70577 1.15447 2.07894 1 2.46804 1H30.3343C30.7237 1 31.0971 1.15467 31.3724 1.42998C31.6477 1.70529 31.8024 2.07869 31.8024 2.46804V10.5628M15.1225 27.2823L8.84519 30.8613C8.56612 31.0232 8.33878 31.2611 8.18964 31.5471C8.0405 31.8332 7.97569 32.1558 8.00277 32.4773C8.02984 32.7987 8.14768 33.1059 8.34256 33.363C8.53744 33.6201 8.80136 33.8166 9.10356 33.9295C9.51168 34.0763 9.9609 34.0587 10.3558 33.8826L16.5025 31.1975" stroke="#6590CC" stroke-width="2" stroke-linecap="round" stroke-linejoin="round"/>
<path d="M17.4993 23.0294H7.23181M14.5661 25.5222C14.5661 25.7796 14.6102 26.0291 14.6982 26.2709L17.4993 34.0294H28.9837L33.8826 19.4797C33.9589 19.2507 33.998 19.0158 34 18.7751C33.98 18.1362 33.7084 17.5311 33.2442 17.0917C32.78 16.6523 32.161 16.4141 31.522 16.4291C30.9828 16.4185 30.4511 16.5566 29.9852 16.8283C29.5193 17.0999 29.1373 17.4946 28.881 17.9691L26.1093 23.0294H17.1029C16.4489 23.0643 15.8301 23.3369 15.363 23.7959C14.8958 24.255 14.6124 24.8689 14.5661 25.5222Z" stroke="#6590CC" stroke-width="2" stroke-linecap="round" stroke-linejoin="round"/>
</svg>
